<?xml version="1.0" encoding="UTF-8" standalone="no"?>
<!DOCTYPE svg PUBLIC "-//W3C//DTD SVG 1.1//EN"
 "http://www.w3.org/Graphics/SVG/1.1/DTD/svg11.dtd">
<!-- Generated by graphviz version 2.43.0 (0)
 -->
<!-- Title: memory_graph Pages: 1 -->
<svg width="307pt" height="274pt"
 viewBox="40.00 20.00 244.00 250.00" xmlns="http://www.w3.org/2000/svg" xmlns:xlink="http://www.w3.org/1999/xlink">
<g id="graph0" class="graph" transform="scale(1 1) rotate(0) translate(4 270)">
<title>memory_graph</title>
<polygon fill="transparent" stroke="transparent" points="-4,4 -4,-270 303,-270 303,4 -4,4"/>
<!-- node131096997088832 -->
<g id="node1" class="node">
<title>node131096997088832</title>
<polygon fill="lightcoral" stroke="transparent" points="25,-4 25,-55 66,-55 66,-4 25,-4"/>
<text text-anchor="start" x="31.5" y="-36.3" font-family="Times,serif" font-size="14.00" fill="#505050">0</text>
<polygon fill="none" stroke="black" points="43.5,-31.5 43.5,-48.5 60.5,-48.5 60.5,-31.5 43.5,-31.5"/>
<text text-anchor="start" x="44.5" y="-36.3" font-family="Times,serif" font-size="14.00"> 1 </text>
<text text-anchor="start" x="31.5" y="-14.3" font-family="Times,serif" font-size="14.00" fill="#505050">1</text>
<polygon fill="none" stroke="black" points="43.5,-9.5 43.5,-26.5 60.5,-26.5 60.5,-9.5 43.5,-9.5"/>
<text text-anchor="start" x="44.5" y="-14.3" font-family="Times,serif" font-size="14.00"> 2 </text>
<polygon fill="none" stroke="black" points="25,-4 25,-55 66,-55 66,-4 25,-4"/>
</g>
<!-- node131096986543360 -->
<g id="node2" class="node">
<title>node131096986543360</title>
<polygon fill="lightcoral" stroke="transparent" points="100,-4 100,-55 141,-55 141,-4 100,-4"/>
<text text-anchor="start" x="106.5" y="-36.3" font-family="Times,serif" font-size="14.00" fill="#505050">0</text>
<polygon fill="none" stroke="black" points="118.5,-31.5 118.5,-48.5 135.5,-48.5 135.5,-31.5 118.5,-31.5"/>
<text text-anchor="start" x="119.5" y="-36.3" font-family="Times,serif" font-size="14.00"> x </text>
<text text-anchor="start" x="106.5" y="-14.3" font-family="Times,serif" font-size="14.00" fill="#505050">1</text>
<polygon fill="none" stroke="black" points="118.5,-9.5 118.5,-26.5 135.5,-26.5 135.5,-9.5 118.5,-9.5"/>
<text text-anchor="start" x="119.5" y="-14.3" font-family="Times,serif" font-size="14.00"> y </text>
<polygon fill="none" stroke="black" points="100,-4 100,-55 141,-55 141,-4 100,-4"/>
</g>
<!-- node131096997088832&#45;&gt;node131096986543360 -->
<!-- node131096982680064 -->
<g id="node5" class="node">
<title>node131096982680064</title>
<polygon fill="lightcoral" stroke="transparent" points="175,-4 175,-55 216,-55 216,-4 175,-4"/>
<text text-anchor="start" x="181.5" y="-36.3" font-family="Times,serif" font-size="14.00" fill="#505050">0</text>
<polygon fill="none" stroke="black" points="193.5,-31.5 193.5,-48.5 210.5,-48.5 210.5,-31.5 193.5,-31.5"/>
<text text-anchor="start" x="194.5" y="-36.3" font-family="Times,serif" font-size="14.00"> 1 </text>
<text text-anchor="start" x="181.5" y="-14.3" font-family="Times,serif" font-size="14.00" fill="#505050">1</text>
<polygon fill="none" stroke="black" points="193.5,-9.5 193.5,-26.5 210.5,-26.5 210.5,-9.5 193.5,-9.5"/>
<text text-anchor="start" x="194.5" y="-14.3" font-family="Times,serif" font-size="14.00"> 2 </text>
<polygon fill="none" stroke="black" points="175,-4 175,-55 216,-55 216,-4 175,-4"/>
</g>
<!-- node131096986543360&#45;&gt;node131096982680064 -->
<!-- node131096987234688 -->
<g id="node3" class="node">
<title>node131096987234688</title>
<polygon fill="lightcoral" stroke="transparent" points="39,-99 39,-148 70,-148 70,-99 39,-99"/>
<text text-anchor="start" x="45.5" y="-130.3" font-family="Times,serif" font-size="14.00" fill="#505050">0</text>
<text text-anchor="start" x="57.5" y="-130.3" font-family="Times,serif" font-size="14.00" fill="#505050">1</text>
<polygon fill="none" stroke="black" points="45.5,-104.5 45.5,-121.5 52.5,-121.5 52.5,-104.5 45.5,-104.5"/>
<text text-anchor="start" x="47" y="-109.3" font-family="Times,serif" font-size="14.00"> </text>
<polygon fill="none" stroke="black" points="57.5,-104.5 57.5,-121.5 64.5,-121.5 64.5,-104.5 57.5,-104.5"/>
<text text-anchor="start" x="59" y="-109.3" font-family="Times,serif" font-size="14.00"> </text>
<polygon fill="none" stroke="black" points="39,-99 39,-148 70,-148 70,-99 39,-99"/>
</g>
<!-- node131096987234688&#45;&gt;node131096997088832 -->
<g id="edge1" class="edge">
<title>node131096987234688:ref0&#45;&gt;node131096997088832:table</title>
<path fill="none" stroke="black" d="M48.5,-103.5C48.5,-91.04 48.06,-77.4 47.51,-65.31"/>
<polygon fill="black" stroke="black" points="51,-64.97 47.02,-55.16 44.01,-65.32 51,-64.97"/>
</g>
<!-- node131096987234688&#45;&gt;node131096986543360 -->
<g id="edge2" class="edge">
<title>node131096987234688:ref1&#45;&gt;node131096986543360:table</title>
<path fill="none" stroke="black" d="M61.5,-103.5C61.5,-92.72 77.27,-73.57 92.5,-57.6"/>
<polygon fill="black" stroke="black" points="95.38,-59.66 99.86,-50.06 90.37,-54.76 95.38,-59.66"/>
</g>
<!-- node131096987234816 -->
<g id="node4" class="node">
<title>node131096987234816</title>
<polygon fill="lightcoral" stroke="transparent" points="111,-99 111,-148 142,-148 142,-99 111,-99"/>
<text text-anchor="start" x="117.5" y="-130.3" font-family="Times,serif" font-size="14.00" fill="#505050">0</text>
<text text-anchor="start" x="129.5" y="-130.3" font-family="Times,serif" font-size="14.00" fill="#505050">1</text>
<polygon fill="none" stroke="black" points="117.5,-104.5 117.5,-121.5 124.5,-121.5 124.5,-104.5 117.5,-104.5"/>
<text text-anchor="start" x="119" y="-109.3" font-family="Times,serif" font-size="14.00"> </text>
<polygon fill="none" stroke="black" points="129.5,-104.5 129.5,-121.5 136.5,-121.5 136.5,-104.5 129.5,-104.5"/>
<text text-anchor="start" x="131" y="-109.3" font-family="Times,serif" font-size="14.00"> </text>
<polygon fill="none" stroke="black" points="111,-99 111,-148 142,-148 142,-99 111,-99"/>
</g>
<!-- node131096987234688&#45;&gt;node131096987234816 -->
<!-- node131096987234816&#45;&gt;node131096997088832 -->
<g id="edge3" class="edge">
<title>node131096987234816:ref0&#45;&gt;node131096997088832:table</title>
<path fill="none" stroke="black" d="M120.5,-103.5C120.5,-96.74 95.18,-73.2 73.97,-54.65"/>
<polygon fill="black" stroke="black" points="76.24,-51.99 66.39,-48.08 71.66,-57.28 76.24,-51.99"/>
</g>
<!-- node131096987234816&#45;&gt;node131096986543360 -->
<g id="edge4" class="edge">
<title>node131096987234816:ref1&#45;&gt;node131096986543360:table</title>
<path fill="none" stroke="black" d="M133.5,-103.5C133.5,-90.95 131.62,-77.38 129.28,-65.38"/>
<polygon fill="black" stroke="black" points="132.65,-64.37 127.15,-55.31 125.8,-65.82 132.65,-64.37"/>
</g>
<!-- node131096987234752 -->
<g id="node7" class="node">
<title>node131096987234752</title>
<polygon fill="lightcoral" stroke="transparent" points="183,-99 183,-148 214,-148 214,-99 183,-99"/>
<text text-anchor="start" x="189.5" y="-130.3" font-family="Times,serif" font-size="14.00" fill="#505050">0</text>
<text text-anchor="start" x="201.5" y="-130.3" font-family="Times,serif" font-size="14.00" fill="#505050">1</text>
<polygon fill="none" stroke="black" points="189.5,-104.5 189.5,-121.5 196.5,-121.5 196.5,-104.5 189.5,-104.5"/>
<text text-anchor="start" x="191" y="-109.3" font-family="Times,serif" font-size="14.00"> </text>
<polygon fill="none" stroke="black" points="201.5,-104.5 201.5,-121.5 208.5,-121.5 208.5,-104.5 201.5,-104.5"/>
<text text-anchor="start" x="203" y="-109.3" font-family="Times,serif" font-size="14.00"> </text>
<polygon fill="none" stroke="black" points="183,-99 183,-148 214,-148 214,-99 183,-99"/>
</g>
<!-- node131096987234816&#45;&gt;node131096987234752 -->
<!-- node131096982680128 -->
<g id="node6" class="node">
<title>node131096982680128</title>
<polygon fill="lightcoral" stroke="transparent" points="250,-4 250,-55 291,-55 291,-4 250,-4"/>
<text text-anchor="start" x="256.5" y="-36.3" font-family="Times,serif" font-size="14.00" fill="#505050">0</text>
<polygon fill="none" stroke="black" points="268.5,-31.5 268.5,-48.5 285.5,-48.5 285.5,-31.5 268.5,-31.5"/>
<text text-anchor="start" x="269.5" y="-36.3" font-family="Times,serif" font-size="14.00"> x </text>
<text text-anchor="start" x="256.5" y="-14.3" font-family="Times,serif" font-size="14.00" fill="#505050">1</text>
<polygon fill="none" stroke="black" points="268.5,-9.5 268.5,-26.5 285.5,-26.5 285.5,-9.5 268.5,-9.5"/>
<text text-anchor="start" x="269.5" y="-14.3" font-family="Times,serif" font-size="14.00"> y </text>
<polygon fill="none" stroke="black" points="250,-4 250,-55 291,-55 291,-4 250,-4"/>
</g>
<!-- node131096982680064&#45;&gt;node131096982680128 -->
<!-- node131096987234752&#45;&gt;node131096982680064 -->
<g id="edge5" class="edge">
<title>node131096987234752:ref0&#45;&gt;node131096982680064:table</title>
<path fill="none" stroke="black" d="M192.5,-103.5C192.5,-91.04 192.94,-77.4 193.49,-65.31"/>
<polygon fill="black" stroke="black" points="196.99,-65.32 193.98,-55.16 190,-64.97 196.99,-65.32"/>
</g>
<!-- node131096987234752&#45;&gt;node131096982680128 -->
<g id="edge6" class="edge">
<title>node131096987234752:ref1&#45;&gt;node131096982680128:table</title>
<path fill="none" stroke="black" d="M205.5,-103.5C205.5,-91.73 224.59,-71.27 242.08,-55"/>
<polygon fill="black" stroke="black" points="244.89,-57.19 249.93,-47.87 240.18,-52.01 244.89,-57.19"/>
</g>
<!-- node131096986748992 -->
<g id="node8" class="node">
<title>node131096986748992</title>
<polygon fill="#60a5ff" stroke="transparent" points="47.5,-192 47.5,-247 163.5,-247 163.5,-192 47.5,-192"/>
<path fill="none" stroke="black" d="M60.83,-221.5C60.83,-221.5 66.17,-221.5 66.17,-221.5 68.83,-221.5 71.5,-224.17 71.5,-226.83 71.5,-226.83 71.5,-233.17 71.5,-233.17 71.5,-235.83 68.83,-238.5 66.17,-238.5 66.17,-238.5 60.83,-238.5 60.83,-238.5 58.17,-238.5 55.5,-235.83 55.5,-233.17 55.5,-233.17 55.5,-226.83 55.5,-226.83 55.5,-224.17 58.17,-221.5 60.83,-221.5"/>
<text text-anchor="start" x="56.5" y="-226.3" font-family="Times,serif" font-size="14.00"> a </text>
<path fill="none" stroke="black" d="M82.17,-221.5C82.17,-221.5 93.83,-221.5 93.83,-221.5 96.67,-221.5 99.5,-224.33 99.5,-227.17 99.5,-227.17 99.5,-232.83 99.5,-232.83 99.5,-235.67 96.67,-238.5 93.83,-238.5 93.83,-238.5 82.17,-238.5 82.17,-238.5 79.33,-238.5 76.5,-235.67 76.5,-232.83 76.5,-232.83 76.5,-227.17 76.5,-227.17 76.5,-224.33 79.33,-221.5 82.17,-221.5"/>
<text text-anchor="start" x="77.5" y="-226.3" font-family="Times,serif" font-size="14.00"> c1 </text>
<path fill="none" stroke="black" d="M110.17,-221.5C110.17,-221.5 121.83,-221.5 121.83,-221.5 124.67,-221.5 127.5,-224.33 127.5,-227.17 127.5,-227.17 127.5,-232.83 127.5,-232.83 127.5,-235.67 124.67,-238.5 121.83,-238.5 121.83,-238.5 110.17,-238.5 110.17,-238.5 107.33,-238.5 104.5,-235.67 104.5,-232.83 104.5,-232.83 104.5,-227.17 104.5,-227.17 104.5,-224.33 107.33,-221.5 110.17,-221.5"/>
<text text-anchor="start" x="105.5" y="-226.3" font-family="Times,serif" font-size="14.00"> c2 </text>
<path fill="none" stroke="black" d="M138.17,-221.5C138.17,-221.5 149.83,-221.5 149.83,-221.5 152.67,-221.5 155.5,-224.33 155.5,-227.17 155.5,-227.17 155.5,-232.83 155.5,-232.83 155.5,-235.67 152.67,-238.5 149.83,-238.5 149.83,-238.5 138.17,-238.5 138.17,-238.5 135.33,-238.5 132.5,-235.67 132.5,-232.83 132.5,-232.83 132.5,-227.17 132.5,-227.17 132.5,-224.33 135.33,-221.5 138.17,-221.5"/>
<text text-anchor="start" x="133.5" y="-226.3" font-family="Times,serif" font-size="14.00"> c3 </text>
<polygon fill="none" stroke="black" points="55.5,-199.5 55.5,-216.5 71.5,-216.5 71.5,-199.5 55.5,-199.5"/>
<text text-anchor="start" x="61.5" y="-204.3" font-family="Times,serif" font-size="14.00"> </text>
<polygon fill="none" stroke="black" points="76.5,-199.5 76.5,-216.5 99.5,-216.5 99.5,-199.5 76.5,-199.5"/>
<text text-anchor="start" x="86" y="-204.3" font-family="Times,serif" font-size="14.00"> </text>
<polygon fill="none" stroke="black" points="104.5,-199.5 104.5,-216.5 127.5,-216.5 127.5,-199.5 104.5,-199.5"/>
<text text-anchor="start" x="114" y="-204.3" font-family="Times,serif" font-size="14.00"> </text>
<polygon fill="none" stroke="black" points="132.5,-199.5 132.5,-216.5 155.5,-216.5 155.5,-199.5 132.5,-199.5"/>
<text text-anchor="start" x="142" y="-204.3" font-family="Times,serif" font-size="14.00"> </text>
<polygon fill="none" stroke="black" stroke-width="3" points="49,-193.5 49,-245.5 162,-245.5 162,-193.5 49,-193.5"/>
</g>
<!-- node131096986748992&#45;&gt;node131096987234688 -->
<g id="edge7" class="edge">
<title>node131096986748992:ref0&#45;&gt;node131096987234688:table</title>
<path fill="none" stroke="black" d="M63.5,-198.5C63.5,-185.25 62.06,-170.77 60.33,-158.16"/>
<polygon fill="black" stroke="black" points="63.77,-157.45 58.84,-148.07 56.84,-158.48 63.77,-157.45"/>
</g>
<!-- node131096986748992&#45;&gt;node131096987234688 -->
<g id="edge8" class="edge">
<title>node131096986748992:ref1&#45;&gt;node131096987234688:table</title>
<path fill="none" stroke="black" d="M87.5,-198.5C87.5,-183.45 81.73,-168.04 75.02,-155.22"/>
<polygon fill="black" stroke="black" points="77.99,-153.37 70.03,-146.38 71.9,-156.81 77.99,-153.37"/>
</g>
<!-- node131096986748992&#45;&gt;node131096987234816 -->
<g id="edge9" class="edge">
<title>node131096986748992:ref2&#45;&gt;node131096987234816:table</title>
<path fill="none" stroke="black" d="M116.5,-198.5C116.5,-185.23 118.1,-170.75 120.02,-158.14"/>
<polygon fill="black" stroke="black" points="123.51,-158.49 121.68,-148.05 116.6,-157.35 123.51,-158.49"/>
</g>
<!-- node131096986748992&#45;&gt;node131096987234752 -->
<g id="edge10" class="edge">
<title>node131096986748992:ref3&#45;&gt;node131096987234752:table</title>
<path fill="none" stroke="black" d="M144.5,-198.5C144.5,-176.36 160.47,-156.41 175.04,-142.83"/>
<polygon fill="black" stroke="black" points="177.67,-145.18 182.88,-135.96 173.05,-139.91 177.67,-145.18"/>
</g>
</g>
</svg>
